<svg xmlns="http://www.w3.org/2000/svg" width="22" height="28" viewBox="0 0 22 28">
  <g id="Group_65" data-name="Group 65" transform="translate(-4.5 -2.5)">
    <path id="Path_99" data-name="Path 99" d="M14,3V9a1.5,1.5,0,0,0,1.5,1.5h6" transform="translate(4.5)" fill="none" stroke="#fff" stroke-linecap="round" stroke-linejoin="round" stroke-width="1"/>
    <path id="Path_100" data-name="Path 100" d="M23,30H8a3,3,0,0,1-3-3V6A3,3,0,0,1,8,3H18.5L26,10.5V27A3,3,0,0,1,23,30Z" transform="translate(0)" fill="none" stroke="#fff" stroke-linecap="round" stroke-linejoin="round" stroke-width="1"/>
    <path id="Path_103" data-name="Path 103" d="M14.075,8.875A1.75,1.75,0,0,0,12.5,8H10.75a1.75,1.75,0,1,0,0,3.5H12.5a1.75,1.75,0,0,1,0,3.5H10.75a1.75,1.75,0,0,1-1.575-.875" transform="translate(3.5 7.25)" fill="none" stroke="#fff" stroke-linecap="round" stroke-linejoin="round" stroke-width="1"/>
    <path id="Path_104" data-name="Path 104" d="M12,6V7.75m0,7V16.5" transform="translate(3.5 7.5)" fill="none" stroke="#fff" stroke-linecap="round" stroke-linejoin="round" stroke-width="1"/>
  </g>
</svg>
