<svg xmlns="http://www.w3.org/2000/svg" width="42.119" height="46.143" viewBox="0 0 42.119 46.143">
  <g id="Group_107" data-name="Group 107" transform="translate(-174.539 -1062)">
    <g id="Group_70" data-name="Group 70" transform="translate(177 1062)">
      <path id="Path_107" data-name="Path 107" d="M0,0H36V36H0Z" fill="none"/>
      <path id="Path_108" data-name="Path 108" d="M18.9,7a12,12,0,0,1,1.65,7.5V16a9,9,0,0,0,1.2,4.5" transform="translate(9.45 3.5)" fill="none" stroke="#fff" stroke-linecap="round" stroke-linejoin="round" stroke-width="1"/>
      <path id="Path_109" data-name="Path 109" d="M8,13a6,6,0,0,1,12,0v1.5a15,15,0,0,0,3,9" transform="translate(4 3.5)" fill="none" stroke="#fff" stroke-linecap="round" stroke-linejoin="round" stroke-width="1"/>
      <path id="Path_110" data-name="Path 110" d="M12,11v3a21,21,0,0,0,3.75,12" transform="translate(6 5.5)" fill="none" stroke="#fff" stroke-linecap="round" stroke-linejoin="round" stroke-width="1"/>
      <path id="Path_111" data-name="Path 111" d="M8,15a27,27,0,0,0,2.7,9" transform="translate(4 7.5)" fill="none" stroke="#fff" stroke-linecap="round" stroke-linejoin="round" stroke-width="1"/>
      <path id="Path_112" data-name="Path 112" d="M5.356,27.011a33,33,0,0,1-1.35-10.5v-1.5a12,12,0,0,1,18-10.425" transform="translate(1.994 1.489)" fill="none" stroke="#fff" stroke-linecap="round" stroke-linejoin="round" stroke-width="1"/>
    </g>
    <path id="Path_128" data-name="Path 128" d="M4.84-7.447,3.212-1.705,1.573-7.447H.539l.187.638V0h.22V-6.193L2.794.066h.143l1.87-6.6V0h.935V-7.447ZM10.857.143a3.757,3.757,0,0,0,3.96-3.883A3.755,3.755,0,0,0,10.846-7.6a3.733,3.733,0,0,0-3.96,3.883A3.725,3.725,0,0,0,10.857.143Zm0-.176c-1.771,0-2.9-1.474-2.9-3.718,0-2.211,1.155-3.674,2.893-3.674,1.76,0,2.9,1.452,2.9,3.707C13.75-1.5,12.595-.033,10.857-.033Zm8.536-7.414V-.583L16.7-7.447h-1l.275.693V0h.22V-6.27L18.634,0h.979V-7.447ZM24.3-.2h-2.31V-7.447h-.946V0H24.3Zm3.63-7.249H27.7l-1.32,3.839-1.3-3.839H24.068l1.485,4.268V0H26.5V-3.3Zm3.069,0V0h.946V-3.091h.341a1.99,1.99,0,0,0,2.156-2.244c0-1.419-.682-2.112-1.98-2.112Zm.946,4.158v-3.96h.341c.726,0,1.111.583,1.111,1.947s-.429,2.013-1.122,2.013ZM37.686,0h.979l-1.65-7.447h-.979l.11.495L34.573,0H34.8l.572-2.541h1.749ZM35.42-2.739l.836-3.718.825,3.718Zm7.238-4.708h-.231l-1.32,3.839-1.3-3.839H38.8l1.485,4.268V0h.946V-3.3Z" transform="translate(174 1108)" fill="#fff"/>
  </g>
</svg>
