<svg xmlns="http://www.w3.org/2000/svg" width="28" height="28" viewBox="0 0 28 28">
  <g id="Group_66" data-name="Group 66" transform="translate(-2.5 -2.5)">
    <path id="Path_106" data-name="Path 106" d="M13.988,4.976a2.585,2.585,0,0,1,5.025,0,2.586,2.586,0,0,0,3.859,1.6,2.587,2.587,0,0,1,3.555,3.555,2.586,2.586,0,0,0,1.6,3.858,2.585,2.585,0,0,1,0,5.025,2.586,2.586,0,0,0-1.6,3.859,2.587,2.587,0,0,1-3.555,3.555,2.586,2.586,0,0,0-3.858,1.6,2.585,2.585,0,0,1-5.025,0,2.586,2.586,0,0,0-3.859-1.6,2.587,2.587,0,0,1-3.555-3.555,2.586,2.586,0,0,0-1.6-3.858,2.585,2.585,0,0,1,0-5.025,2.586,2.586,0,0,0,1.6-3.859A2.587,2.587,0,0,1,10.13,6.573a2.585,2.585,0,0,0,3.858-1.6Z" transform="translate(0 0)" fill="none" stroke="#fff" stroke-linecap="round" stroke-linejoin="round" stroke-width="1"/>
    <circle id="Ellipse_13" data-name="Ellipse 13" cx="4.5" cy="4.5" r="4.5" transform="translate(12 12)" fill="none" stroke="#fff" stroke-linecap="round" stroke-linejoin="round" stroke-width="1"/>
  </g>
</svg>
