<svg xmlns="http://www.w3.org/2000/svg" width="21" height="21" viewBox="0 0 21 21">
  <g id="Group_62" data-name="Group 62" transform="translate(-3.5 -3.5)">
    <path id="Path_94" data-name="Path 94" d="M4,7.75V6.5A2.5,2.5,0,0,1,6.5,4H9" fill="none" stroke="#000" stroke-linecap="round" stroke-linejoin="round" stroke-width="1"/>
    <path id="Path_95" data-name="Path 95" d="M4,17v1.25a2.5,2.5,0,0,0,2.5,2.5H9" transform="translate(0 3.25)" fill="none" stroke="#000" stroke-linecap="round" stroke-linejoin="round" stroke-width="1"/>
    <path id="Path_96" data-name="Path 96" d="M16,4h2.5A2.5,2.5,0,0,1,21,6.5V7.75" transform="translate(3)" fill="none" stroke="#000" stroke-linecap="round" stroke-linejoin="round" stroke-width="1"/>
    <path id="Path_97" data-name="Path 97" d="M16,20.75h2.5a2.5,2.5,0,0,0,2.5-2.5V17" transform="translate(3 3.25)" fill="none" stroke="#000" stroke-linecap="round" stroke-linejoin="round" stroke-width="1"/>
    <rect id="Rectangle_110" data-name="Rectangle 110" width="1.25" height="2.5" transform="translate(5.25 12.75)" fill="none" stroke="#000" stroke-linecap="round" stroke-linejoin="round" stroke-width="1"/>
    <line id="Line_22" data-name="Line 22" y2="2.5" transform="translate(11.5 12.75)" fill="none" stroke="#000" stroke-linecap="round" stroke-linejoin="round" stroke-width="1"/>
    <rect id="Rectangle_111" data-name="Rectangle 111" width="1.25" height="2.5" transform="translate(16.5 12.75)" fill="none" stroke="#000" stroke-linecap="round" stroke-linejoin="round" stroke-width="1"/>
    <line id="Line_23" data-name="Line 23" y2="2.5" transform="translate(22.75 12.75)" fill="none" stroke="#000" stroke-linecap="round" stroke-linejoin="round" stroke-width="1"/>
  </g>
</svg>
