<svg xmlns="http://www.w3.org/2000/svg" width="19" height="21" viewBox="0 0 19 21">
  <g id="Group_61" data-name="Group 61" transform="translate(1.5 -2.5)">
    <path id="Path_89" data-name="Path 89" d="M22,11H16m3,3.333" transform="translate(-17 0.889)" fill="none" stroke="#000" stroke-linecap="round" stroke-linejoin="round" stroke-width="1"/>
    <path id="Path_91" data-name="Path 91" d="M16.7,8.222A3.055,3.055,0,0,0,14,6H10A3.18,3.18,0,0,0,7,9.333a3.18,3.18,0,0,0,3,3.333h4A3.18,3.18,0,0,1,17,16a3.18,3.18,0,0,1-3,3.333H10a3.055,3.055,0,0,1-2.7-2.222" transform="translate(0 0.333)" fill="none" stroke="#000" stroke-linecap="round" stroke-linejoin="round" stroke-width="1"/>
    <path id="Path_92" data-name="Path 92" d="M12,3V6.333m0,13.333V23" transform="translate(0 0)" fill="none" stroke="#000" stroke-linecap="round" stroke-linejoin="round" stroke-width="1"/>
  </g>
</svg>
