<svg xmlns="http://www.w3.org/2000/svg" width="119.52" height="33.792" viewBox="0 0 119.52 33.792">
  <path id="Path_127" data-name="Path 127" d="M21.12-32.5,14.016-7.44,6.864-32.5H2.352l.816,2.784V0h.96V-27.024L12.192.288h.624l8.16-28.8V0h4.08V-32.5ZM47.376.624c10.08,0,17.28-6.912,17.28-16.944,0-9.84-7.1-16.848-17.328-16.848S30.048-26.3,30.048-16.224C30.048-6.24,37.056.624,47.376.624Zm0-.768C39.648-.144,34.7-6.576,34.7-16.368c0-9.648,5.04-16.032,12.624-16.032C55.008-32.4,60-26.064,60-16.224,60-6.528,54.96-.144,47.376-.144ZM84.624-32.5V-2.544L72.864-32.5H68.5l1.2,3.024V0h.96V-27.36L81.312,0h4.272V-32.5ZM106.032-.864H95.952V-32.5H91.824V0h14.208ZM121.872-32.5h-1.008L115.1-15.744,109.44-32.5h-4.416l6.48,18.624V0h4.128V-14.4Z" transform="translate(-2.352 33.168)" fill="#fff"/>
</svg>
